<svg id="Layer_1" data-name="Layer 1" xmlns="http://www.w3.org/2000/svg" xmlns:xlink="http://www.w3.org/1999/xlink" viewBox="0 0 796.973 200.868"><defs><style>.cls-1,.cls-3,.cls-4{fill:#5d925d;}.cls-1,.cls-10,.cls-11,.cls-12,.cls-13,.cls-14,.cls-15,.cls-16,.cls-17,.cls-18,.cls-3,.cls-6,.cls-7,.cls-8,.cls-9{stroke:#fff;}.cls-1,.cls-10,.cls-11,.cls-12,.cls-14,.cls-15,.cls-16,.cls-17,.cls-18,.cls-3,.cls-6,.cls-7,.cls-8,.cls-9{stroke-miterlimit:10;}.cls-13,.cls-18,.cls-2{fill:#231f20;}.cls-10,.cls-11,.cls-3,.cls-8,.cls-9{stroke-width:5px;}.cls-5{fill:#c1c2c4;}.cls-10,.cls-6{fill:#fff;}.cls-15,.cls-6,.cls-7{stroke-width:0.25px;}.cls-7{fill:#dfce6d;}.cls-8{fill:none;}.cls-9{fill:#ffe3aa;}.cls-11{fill:#ed1c24;}.cls-12{fill:#d14e4e;}.cls-14{fill:#6263ab;}.cls-15{fill:#c0c2c4;}.cls-16{fill:url(#linear-gradient);}.cls-17{fill:url(#linear-gradient-2);}</style><linearGradient id="linear-gradient" x1="-548.769" y1="-36.175" x2="-577.774" y2="13.08" gradientTransform="matrix(1.204, 0.901, -0.548, 0.732, 190.7, 496.616)" gradientUnits="userSpaceOnUse"><stop offset="0" stop-color="#fff33b"/><stop offset="0.024" stop-color="#fee72e"/><stop offset="0.069" stop-color="#fed51b"/><stop offset="0.116" stop-color="#fdca10"/><stop offset="0.166" stop-color="#fdc70c"/><stop offset="0.391" stop-color="#f3903f"/><stop offset="0.663" stop-color="#ed683c"/><stop offset="1" stop-color="#e93e3a"/></linearGradient><linearGradient id="linear-gradient-2" x1="-737.619" y1="-73.358" x2="-737.619" y2="-73.358" gradientTransform="matrix(1, 0, 0, 1, 0, 0)" xlink:href="#linear-gradient"/></defs><rect class="cls-1" x="93.574" y="127.836" width="526.28" height="39.979"/><path class="cls-2" d="M-114.94-161.826l0,0v-.686l0,0h.111l0,0v.568h.206l.005.005v.113l-.005,0Z" transform="translate(594.745 169.022)"/><path class="cls-2" d="M-114.375-161.816a.176.176,0,0,1-.1-.028.2.2,0,0,1-.071-.073.182.182,0,0,1-.028-.1v-.317a.19.19,0,0,1,.027-.1.2.2,0,0,1,.071-.072.186.186,0,0,1,.1-.027.179.179,0,0,1,.1.027.2.2,0,0,1,.07.072.19.19,0,0,1,.027.1v.317a.19.19,0,0,1-.027.1.2.2,0,0,1-.07.073A.178.178,0,0,1-114.375-161.816Zm0-.121a.065.065,0,0,0,.051-.025.073.073,0,0,0,.023-.055v-.317a.079.079,0,0,0-.021-.056.068.068,0,0,0-.052-.023.071.071,0,0,0-.054.023.075.075,0,0,0-.022.056v.317a.076.076,0,0,0,.022.056A.068.068,0,0,0-114.375-161.937Z" transform="translate(594.745 169.022)"/><path class="cls-2" d="M-114.1-161.826l0,0,0-.687,0,0h.2a.2.2,0,0,1,.1.026.222.222,0,0,1,.072.071.2.2,0,0,1,.027.1.194.194,0,0,1-.011.066.18.18,0,0,1-.026.05.124.124,0,0,1-.027.031.2.2,0,0,1,.054.141v.205l0,0h-.114l0,0v-.207a.084.084,0,0,0-.025-.062.085.085,0,0,0-.063-.027h-.066v.294l0,0Zm.118-.419h.086a.082.082,0,0,0,.056-.023.077.077,0,0,0,.023-.056.075.075,0,0,0-.023-.055.079.079,0,0,0-.056-.023h-.086Z" transform="translate(594.745 169.022)"/><path class="cls-2" d="M-113.618-161.826l0,0v-.687l0,0h.322l0,0v.112l0,0h-.2v.156h.2l0,0v.113l0,0h-.206v.175h.206l0,.005v.114l0,0Z" transform="translate(594.745 169.022)"/><path class="cls-2" d="M-113.2-161.826l0,0,0-.687,0,0h.122l.007,0,.092.132.091-.132.007,0h.123l0,0v.687l0,0h-.114l0,0v-.51l-.1.152-.105-.152v.51l0,0Z" transform="translate(594.745 169.022)"/><path class="cls-2" d="M-112.512-161.826l0,0v-.687l0,0h.112l0,0v.687l0,0Z" transform="translate(594.745 169.022)"/><path class="cls-2" d="M-112.3-161.826l0,0,0-.687,0,0h.192a.19.19,0,0,1,.146.056.213.213,0,0,1,.053.152.249.249,0,0,1-.028.123.21.21,0,0,1-.073.08.189.189,0,0,1-.1.028h-.076v.252l0,0Zm.117-.378h.076a.069.069,0,0,0,.056-.03.133.133,0,0,0,.023-.08.1.1,0,0,0-.021-.064.073.073,0,0,0-.058-.025h-.076Z" transform="translate(594.745 169.022)"/><path class="cls-2" d="M-111.671-161.816a.176.176,0,0,1-.1-.028.207.207,0,0,1-.071-.073.19.19,0,0,1-.027-.1v-.046l0-.005h.113l0,.005v.046a.073.073,0,0,0,.023.056.069.069,0,0,0,.053.024.067.067,0,0,0,.052-.024.08.08,0,0,0,.023-.056c0-.025-.017-.046-.049-.064l-.05-.028-.063-.036a.2.2,0,0,1-.082-.08.227.227,0,0,1-.027-.11.18.18,0,0,1,.028-.1.193.193,0,0,1,.071-.071.188.188,0,0,1,.1-.026.193.193,0,0,1,.1.026.2.2,0,0,1,.071.072.192.192,0,0,1,.026.1v.082l0,0h-.111l0,0v-.082a.076.076,0,0,0-.023-.057.068.068,0,0,0-.051-.022.069.069,0,0,0-.053.024.073.073,0,0,0-.023.055.1.1,0,0,0,.014.055.137.137,0,0,0,.052.042l.019.011.032.016a.318.318,0,0,0,.03.017l.017.009a.254.254,0,0,1,.079.069.165.165,0,0,1,.028.1.2.2,0,0,1-.026.1.2.2,0,0,1-.071.072A.185.185,0,0,1-111.671-161.816Z" transform="translate(594.745 169.022)"/><path class="cls-2" d="M-111.221-161.816a.181.181,0,0,1-.1-.028.207.207,0,0,1-.071-.073.2.2,0,0,1-.026-.1v-.5l0,0h.113l0,0v.5a.076.076,0,0,0,.021.057.068.068,0,0,0,.053.024.069.069,0,0,0,.053-.024.08.08,0,0,0,.021-.057v-.5l.005,0h.111l0,0,0,.5a.206.206,0,0,1-.026.1.207.207,0,0,1-.071.073A.189.189,0,0,1-111.221-161.816Z" transform="translate(594.745 169.022)"/><path class="cls-2" d="M-110.942-161.826l0,0,0-.687,0,0h.122l.007,0,.092.132.091-.132.006,0h.123l0,0,0,.687,0,0h-.113l0,0v-.51l-.1.152-.105-.152v.51l0,0Z" transform="translate(594.745 169.022)"/><rect class="cls-1" x="93.574" y="6.091" width="526.28" height="39.598"/><path class="cls-3" d="M25.109-1.206" transform="translate(594.745 169.022)"/><polyline class="cls-3" points="619.854 127.454 662.505 127.454 662.505 167.815"/><polyline class="cls-4" points="618.854 6.091 661.082 6.091 661.082 45.689 618.854 45.689"/><rect class="cls-4" x="619.268" y="126.687" width="41.63" height="40.56"/><rect class="cls-5" x="26.904" width="31.071" height="175.974"/><path class="cls-5" d="M-567.841,6.952c-40.372,0-31.071-175.974,0-175.974" transform="translate(594.745 169.022)"/><polygon class="cls-6" points="97.019 172.314 62.916 172.314 62.916 3.695 97.019 3.695 97.019 9.483 97.019 172.314"/><rect class="cls-7" x="68.587" y="12.254" width="22.761" height="150.915" rx="2.546"/><path class="cls-8" d="M25.109-123.333" transform="translate(594.745 169.022)"/><polygon class="cls-6" points="796.727 84.28 745.092 53.858 745.092 114.703 796.727 84.28"/><polygon class="cls-9" points="662.505 6.656 742.601 55.211 742.601 113.555 662.505 169.318 619.854 127.454 662.505 85.591 619.854 45.689 662.505 6.656"/><line class="cls-8" x1="662.251" y1="169.699" x2="96.765" y2="169.699"/><line class="cls-8" x1="619.854" y1="127.454" x2="91.348" y2="127.454"/><polyline class="cls-10" points="97.019 43.426 97.019 129.816 619.854 127.836 662.505 85.591 619.854 45.689 91.348 45.689"/><line class="cls-11" x1="662.223" y1="6.091" x2="96.737" y2="6.091"/><path class="cls-12" d="M-390.768-136.556s-25.119-6.835-31.963,1.306C-431.9-124.337-460.716-59.2-460.716-59.2L-434.5-24.427s43.64-52.475,50.069-67.9C-379.68-103.732-390.768-136.556-390.768-136.556ZM-460.716-59.2l11.538-35.725c-6.655-.955-27-8.383-44.509,22.713Zm51.683-41.068c1.889,2.711,2.69,6.746,2.077,11.558-1.286,10.143-8.775,20.48-17.275,22.68-9.158,2.371-14.7-5.752-12.006-17.527,2.483-10.871,10.918-19.658,18.657-20.443A8.841,8.841,0,0,1-409.033-100.264ZM-434.5-24.427l15.2,55.077c21.709-33.025,11.36-66.561,9.321-76.984Z" transform="translate(594.745 169.022)"/><path class="cls-13" d="M-487.684-57.846c-.2,0-.3-.123-.3-.371l.151-50.837a.265.265,0,0,1,.3-.3h15.319a15.016,15.016,0,0,1,7.546,1.961,15.214,15.214,0,0,1,5.5,5.253,13.8,13.8,0,0,1,2.047,7.437,13.7,13.7,0,0,1-.834,4.921,15.19,15.19,0,0,1-1.971,3.7,12.954,12.954,0,0,1-2.048,2.256,14.891,14.891,0,0,1,4.1,10.434l.076,15.17a.332.332,0,0,1-.379.371h-8.57c-.2,0-.3-.075-.3-.223V-73.387a6.374,6.374,0,0,0-1.934-4.625,6.405,6.405,0,0,0-4.74-1.96h-5l-.076,21.755c0,.248-.1.371-.3.371Zm8.949-31.006h6.522a5.931,5.931,0,0,0,4.171-1.7,5.464,5.464,0,0,0,1.82-4.145A5.436,5.436,0,0,0-468-98.768a5.894,5.894,0,0,0-4.209-1.7h-6.522Z" transform="translate(594.745 169.022)"/><path class="cls-13" d="M-381.361-57.106a14.33,14.33,0,0,1-7.546-2.035,15.075,15.075,0,0,1-5.347-5.439,14.922,14.922,0,0,1-1.972-7.622l.076-23.088a14.671,14.671,0,0,1,1.934-7.437,14.869,14.869,0,0,1,5.309-5.4,14.329,14.329,0,0,1,7.546-2.034,14.34,14.34,0,0,1,7.508,2,14.984,14.984,0,0,1,5.308,5.364,14.589,14.589,0,0,1,1.972,7.512v3.4a.265.265,0,0,1-.3.3h-8.494a.264.264,0,0,1-.3-.3v-3.4a6.029,6.029,0,0,0-1.631-4.219,5.284,5.284,0,0,0-4.057-1.775,5.012,5.012,0,0,0-4.172,1.813,6.527,6.527,0,0,0-1.441,4.181V-72.2a6.145,6.145,0,0,0,1.631,4.439,5.3,5.3,0,0,0,3.982,1.7,5.147,5.147,0,0,0,4.057-1.888,6.332,6.332,0,0,0,1.631-4.254v-3.4a.265.265,0,0,1,.3-.3h8.57a.266.266,0,0,1,.3.3v3.4a14.716,14.716,0,0,1-2.01,7.622,15.507,15.507,0,0,1-5.346,5.439A14.146,14.146,0,0,1-381.361-57.106Z" transform="translate(594.745 169.022)"/><path class="cls-13" d="M-360.658-57.846c-.2,0-.3-.123-.3-.371l.151-50.763q0-.371.3-.37h8.493c.2,0,.3.123.3.37v17.537l11.906-17.611a.66.66,0,0,1,.531-.3h8.722c.2,0,.252.1.151.3l-13.12,20.423,14.713,30.489q.15.3-.38.3h-9.251q-.381,0-.456-.3L-349.131-79.9l-2.654,4.07v17.611c0,.248-.1.371-.3.371Z" transform="translate(594.745 169.022)"/><path class="cls-13" d="M-325.091-57.846c-.2,0-.3-.123-.3-.371l.076-50.837a.265.265,0,0,1,.3-.3h24.344c.2,0,.3.123.3.37v8.287a.266.266,0,0,1-.3.3h-15.547v11.544h15.547a.265.265,0,0,1,.3.3l.076,8.361a.266.266,0,0,1-.3.3h-15.623v12.949H-300.6c.2,0,.3.124.3.371v8.436a.265.265,0,0,1-.3.3Z" transform="translate(594.745 169.022)"/><path class="cls-13" d="M-285.958-57.846c-.2,0-.3-.123-.3-.371V-100.4h-9.859a.331.331,0,0,1-.379-.37l.076-8.288a.265.265,0,0,1,.3-.3H-267.3c.252,0,.379.1.379.3v8.288c0,.247-.1.37-.3.37h-9.935l.076,42.179c0,.248-.1.371-.3.371Z" transform="translate(594.745 169.022)"/><path class="cls-13" d="M-252.818-58.217l9.4-50.837a.357.357,0,0,1,.38-.3h11a.356.356,0,0,1,.379.3l9.025,50.837c.05.248-.051.371-.3.371h-8.418c-.2,0-.33-.123-.379-.371l-.835-5.4h-10.314l-.834,5.4c-.051.248-.177.371-.379.371h-8.418C-252.718-57.846-252.818-57.969-252.818-58.217Zm11.451-13.319h7.281L-237.2-92.33l-.455-2.739-.3,2.739Z" transform="translate(594.745 169.022)"/><path class="cls-13" d="M-217.479-57.846a.331.331,0,0,1-.379-.371l.151-50.837a.266.266,0,0,1,.3-.3h14.561q6.977,0,11.035,4.144t4.057,11.248a18.548,18.548,0,0,1-2.124,9.1,15.5,15.5,0,0,1-5.536,5.92,14.06,14.06,0,0,1-7.432,2.071h-5.764v18.648a.331.331,0,0,1-.379.371Zm8.873-27.973h5.764a5.246,5.246,0,0,0,4.209-2.256,9.221,9.221,0,0,0,1.782-5.883,7,7,0,0,0-1.592-4.737,5.5,5.5,0,0,0-4.4-1.85l-5.764.074Z" transform="translate(594.745 169.022)"/><path class="cls-13" d="M-182.822-57.846a.331.331,0,0,1-.379-.371l.152-50.837a.265.265,0,0,1,.3-.3h14.561q6.977,0,11.034,4.144t4.058,11.248a18.559,18.559,0,0,1-2.124,9.1,15.508,15.508,0,0,1-5.536,5.92,14.06,14.06,0,0,1-7.432,2.071h-5.764v18.648a.332.332,0,0,1-.379.371Zm8.873-27.973h5.764a5.247,5.247,0,0,0,4.209-2.256,9.221,9.221,0,0,0,1.782-5.883,7,7,0,0,0-1.593-4.737,5.5,5.5,0,0,0-4.4-1.85l-5.764.074Z" transform="translate(594.745 169.022)"/><path class="cls-13" d="M-148.241-57.846c-.2,0-.3-.123-.3-.371l.075-50.763a.331.331,0,0,1,.38-.37h8.418a.331.331,0,0,1,.379.37l-.077,42.031h15.623a.332.332,0,0,1,.379.371v8.361a.332.332,0,0,1-.379.371Z" transform="translate(594.745 169.022)"/><path class="cls-13" d="M-118.058-57.846a.331.331,0,0,1-.379-.371l.076-50.837a.265.265,0,0,1,.3-.3h8.494a.266.266,0,0,1,.3.3l.075,50.837c0,.248-.1.371-.3.371Z" transform="translate(594.745 169.022)"/><path class="cls-13" d="M-106.606-58.217l9.4-50.837a.357.357,0,0,1,.38-.3h11a.357.357,0,0,1,.379.3l9.026,50.837c.049.248-.051.371-.3.371h-8.418c-.2,0-.329-.123-.379-.371l-.835-5.4H-96.671l-.834,5.4c-.051.248-.178.371-.38.371H-106.3C-106.5-57.846-106.606-57.969-106.606-58.217Zm11.451-13.319h7.281l-3.11-20.794-.455-2.739-.3,2.739Z" transform="translate(594.745 169.022)"/><path class="cls-13" d="M-70.963-57.846c-.406,0-.607-.173-.607-.519l-.076-50.394a.529.529,0,0,1,.606-.591h6.827L-51.4-80.195l-.379-28.564q0-.591.682-.591h7.509c.3,0,.455.2.455.591l.075,50.469c0,.3-.127.444-.379.444h-6.674l-13.12-27.232.531,26.64q0,.593-.682.592Z" transform="translate(594.745 169.022)"/><path class="cls-13" d="M-22.5-57.106a14.33,14.33,0,0,1-7.546-2.035A15.067,15.067,0,0,1-35.4-64.58,14.922,14.922,0,0,1-37.368-72.2l.076-23.088a14.661,14.661,0,0,1,1.934-7.437,14.869,14.869,0,0,1,5.309-5.4,14.329,14.329,0,0,1,7.546-2.034,14.333,14.333,0,0,1,7.507,2A14.987,14.987,0,0,1-9.687-102.8,14.6,14.6,0,0,1-7.715-95.29v3.4a.265.265,0,0,1-.3.3h-8.493a.265.265,0,0,1-.3-.3v-3.4a6.029,6.029,0,0,0-1.631-4.219,5.28,5.28,0,0,0-4.056-1.775,5.012,5.012,0,0,0-4.172,1.813,6.527,6.527,0,0,0-1.441,4.181V-72.2a6.145,6.145,0,0,0,1.631,4.439,5.3,5.3,0,0,0,3.982,1.7,5.143,5.143,0,0,0,4.056-1.888A6.332,6.332,0,0,0-16.816-72.2v-3.4a.266.266,0,0,1,.3-.3h8.569a.267.267,0,0,1,.3.3v3.4a14.716,14.716,0,0,1-2.01,7.622A15.518,15.518,0,0,1-15-59.141,14.14,14.14,0,0,1-22.5-57.106Z" transform="translate(594.745 169.022)"/><path class="cls-13" d="M-1.8-57.846c-.2,0-.3-.123-.3-.371l.076-50.837a.265.265,0,0,1,.3-.3H22.62q.3,0,.3.37v8.287a.265.265,0,0,1-.3.3H7.073v11.544H22.62a.265.265,0,0,1,.3.3L23-80.195a.266.266,0,0,1-.3.3H7.073v12.949H22.7c.2,0,.3.124.3.371v8.436a.266.266,0,0,1-.3.3Z" transform="translate(594.745 169.022)"/><rect class="cls-14" x="-429.506" y="-103.113" width="13.251" height="40.21" rx="6.626" transform="translate(496.585 369.341) rotate(30)"/><polygon class="cls-15" points="790.087 84.28 747.55 60.523 747.55 108.038 790.087 84.28"/><path class="cls-16" d="M-449.443-26.667C-443.1-10.615-507.8,9.344-507.8,9.344s10.215-51.02,49.19-56.5l-9.984,21.8Z" transform="translate(594.745 169.022)"/><path class="cls-17" d="M-737.619-73.358" transform="translate(594.745 169.022)"/><path class="cls-18" d="M-435.118-61.434a13.6,13.6,0,0,1-5.3-5.406,15.613,15.613,0,0,1-1.88-7.324,14.291,14.291,0,0,1,1.987-7.44l11.794-20.278a14.309,14.309,0,0,1,5.4-5.429,15.02,15.02,0,0,1,7.246-1.969,13.842,13.842,0,0,1,7.28,1.9,13.607,13.607,0,0,1,5.281,5.355,15.207,15.207,0,0,1,1.854,7.224,14.313,14.313,0,0,1-2,7.389L-415.12-67.063a14.512,14.512,0,0,1-5.417,5.46,15.319,15.319,0,0,1-7.251,2.052A13.605,13.605,0,0,1-435.118-61.434Zm4.477-7.754a5.128,5.128,0,0,0,4.271.372,5.908,5.908,0,0,0,3.5-2.723l11.665-20.353a5.923,5.923,0,0,0,.726-4.366,5.089,5.089,0,0,0-2.546-3.436,5.286,5.286,0,0,0-4.228-.518,5.738,5.738,0,0,0-3.5,2.807L-432.487-77.09a5.894,5.894,0,0,0-.68,4.435A5.179,5.179,0,0,0-430.641-69.188Z" transform="translate(594.745 169.022)"/></svg>