<svg id="Layer_20" data-name="Layer 20" xmlns="http://www.w3.org/2000/svg" viewBox="0 0 800.49 199.29"><defs><style>.cls-1{font-size:1px;}.cls-1,.cls-13,.cls-14,.cls-20,.cls-6{fill:#231f20;}.cls-1,.cls-13,.cls-14{font-family:Staatliches-Regular, Staatliches;}.cls-2{letter-spacing:-0.01em;}.cls-3,.cls-4,.cls-5{fill:#5d925d;}.cls-10,.cls-11,.cls-12,.cls-13,.cls-14,.cls-19,.cls-20,.cls-3,.cls-4,.cls-6,.cls-7,.cls-8,.cls-9{stroke:#fff;}.cls-10,.cls-11,.cls-12,.cls-19,.cls-20,.cls-3,.cls-4,.cls-6,.cls-7,.cls-8,.cls-9{stroke-miterlimit:10;}.cls-10,.cls-11,.cls-4,.cls-9{stroke-width:5px;}.cls-7{fill:#fff;}.cls-20,.cls-7,.cls-8{stroke-width:0.25px;}.cls-8{fill:#dfce6d;}.cls-9{fill:none;}.cls-10{fill:#ffe3aa;}.cls-11{fill:#ed1c24;}.cls-12{fill:#d14e4d;}.cls-13{font-size:82.13px;}.cls-14{font-size:77px;}.cls-15{font-size:69px;}.cls-16{letter-spacing:0.02em;}.cls-17{letter-spacing:-0.02em;}.cls-18{letter-spacing:0em;}.cls-19{fill:#7f3f98;}</style></defs><text class="cls-1" transform="translate(480.26 7.7)"><tspan class="cls-2">L</tspan><tspan x="0.38" y="0">orem ipsum</tspan></text><rect class="cls-3" x="94.07" y="6.59" width="526.28" height="39.6"/><path class="cls-4" d="M647.31,189.06" transform="translate(-26.96 -20.74)"/><polyline class="cls-4" points="620.35 127.95 663 127.95 663 168.31"/><polyline class="cls-5" points="619.35 6.59 661.58 6.59 661.58 46.19 619.35 46.19"/><rect class="cls-3" x="94.07" y="128.34" width="526.28" height="39.98"/><rect class="cls-5" x="619.77" y="127.19" width="41.63" height="40.56"/><rect class="cls-6" x="27.4" y="0.5" width="31.07" height="175.97"/><path class="cls-6" d="M54.36,197.22c-40.37,0-31.07-176,0-176" transform="translate(-26.96 -20.74)"/><polygon class="cls-7" points="97.52 172.81 63.42 172.81 63.42 4.2 97.52 4.2 97.52 9.98 97.52 172.81"/><rect class="cls-8" x="69.09" y="12.75" width="22.76" height="150.92" rx="2.55"/><path class="cls-9" d="M647.31,66.93" transform="translate(-26.96 -20.74)"/><polygon class="cls-7" points="800.23 84.75 747.76 55.44 747.76 114.06 800.23 84.75"/><polygon class="cls-10" points="663 7.16 743.1 55.71 743.1 114.06 663 169.82 620.35 127.95 663 86.09 620.35 46.19 663 7.16"/><line class="cls-9" x1="662.58" y1="170.5" x2="97.1" y2="170.5"/><line class="cls-9" x1="620.35" y1="127.95" x2="91.85" y2="127.95"/><line class="cls-11" x1="91.85" y1="46.19" x2="620.35" y2="46.19"/><line class="cls-11" x1="662.72" y1="6.59" x2="97.24" y2="6.59"/><path class="cls-12" d="M223.86,49.85s-25.71-6.91-32.71,1.32c-9.39,11-38.87,76.87-38.87,76.87l26.83,35.14s44.65-53,51.23-68.63C235.2,83,223.86,49.85,223.86,49.85ZM179.11,163.18l15.55,55.67c22.21-33.38,11.62-67.28,9.53-77.81ZM152.28,128l11.81-36.11c-6.81-1-27.63-8.47-45.54,23Zm52.89-41.51c1.93,2.74,2.75,6.82,2.12,11.68-1.31,10.25-9,20.7-17.67,22.92-9.37,2.4-15-5.81-12.29-17.71,2.54-11,11.17-19.87,19.09-20.66A9.09,9.09,0,0,1,205.17,86.53Zm-57.81,54.12c-28.65,13.29-31,78.59-31,78.59s43.59-5.13,50-52.7L138.57,183Z" transform="translate(-26.96 -20.74)"/><text class="cls-13" transform="matrix(0.89, 0.48, -0.5, 0.87, 133.57, 96.06)">o</text><text class="cls-14" transform="translate(104.22 111.68) scale(1.02 1)"><tspan xml:space="preserve">R   </tspan><tspan class="cls-15" x="71.3" y="0"> </tspan><tspan x="81.51" y="0">CKET</tspan><tspan class="cls-16" x="215.64" y="0"> </tspan><tspan x="228.81" y="0">APPL</tspan><tspan class="cls-17" x="362.63" y="0">I</tspan><tspan class="cls-18" x="377.26" y="0">ANCE</tspan></text><rect class="cls-19" x="184.84" y="80.39" width="13.25" height="40.21" rx="6.63" transform="translate(48.94 -103.01) rotate(30)"/><polygon class="cls-20" points="790.23 84.75 747.69 60.99 747.69 108.5 790.23 84.75"/></svg>