<svg id="Layer_20" data-name="Layer 20" xmlns="http://www.w3.org/2000/svg" viewBox="0 0 800.487 199.289"><polygon points="663.005 86.091 620.354 46.189 98.526 46.189 97.096 128.336 620.354 127.954 663.005 86.091" style="fill:#fff;stroke:#fff"/><text transform="translate(480.261 7.695)" style="font-size:1px;fill:#231f20;font-family:Staatliches-Regular, Staatliches"><tspan style="letter-spacing:-0.01416015625em">L</tspan><tspan x="0.383" y="0">orem ipsum</tspan></text><rect x="94.074" y="6.591" width="526.28" height="39.598" style="fill:#5d925d;stroke:#fff;stroke-miterlimit:10"/><path d="M746.843,332.984" transform="translate(-126.489 -164.669)" style="fill:#5d925d;stroke:#fff;stroke-miterlimit:10;stroke-width:5px"/><polyline points="620.354 127.954 663.005 127.954 663.005 168.315" style="fill:#5d925d;stroke:#fff;stroke-miterlimit:10;stroke-width:5px"/><polyline points="619.354 6.591 661.582 6.591 661.582 46.189 619.354 46.189" style="fill:#5d925d"/><rect x="94.074" y="128.336" width="526.28" height="39.979" style="fill:#5d925d;stroke:#fff;stroke-miterlimit:10"/><rect x="619.768" y="127.187" width="41.63" height="40.56" style="fill:#5d925d"/><rect x="27.404" y="0.5" width="31.071" height="175.974" style="fill:#231f20;stroke:#fff;stroke-miterlimit:10"/><path d="M153.893,341.143c-40.373,0-31.071-175.974,0-175.974" transform="translate(-126.489 -164.669)" style="fill:#231f20;stroke:#fff;stroke-miterlimit:10"/><polygon points="97.519 172.814 63.416 172.814 63.416 4.195 97.519 4.195 97.519 9.983 97.519 172.814" style="fill:#fff;stroke:#fff;stroke-miterlimit:10;stroke-width:0.25px"/><rect x="69.087" y="12.754" width="22.761" height="150.915" rx="2.546" style="fill:#dfce6d;stroke:#fff;stroke-miterlimit:10;stroke-width:0.25px"/><path d="M746.843,210.858" transform="translate(-126.489 -164.669)" style="fill:none;stroke:#fff;stroke-miterlimit:10;stroke-width:5px"/><polygon points="800.231 84.748 747.757 55.441 747.757 114.055 800.231 84.748" style="fill:#fff;stroke:#fff;stroke-miterlimit:10;stroke-width:0.25px"/><polygon points="663.005 7.156 743.101 55.711 743.101 114.055 663.005 169.818 620.354 127.954 663.005 86.091 620.354 46.189 663.005 7.156" style="fill:#ffe3aa;stroke:#fff;stroke-miterlimit:10;stroke-width:5px"/><line x1="662.582" y1="170.495" x2="97.096" y2="170.495" style="fill:none;stroke:#fff;stroke-miterlimit:10;stroke-width:5px"/><line x1="620.354" y1="127.954" x2="91.848" y2="127.954" style="fill:none;stroke:#fff;stroke-miterlimit:10;stroke-width:5px"/><line x1="91.848" y1="46.189" x2="620.354" y2="46.189" style="fill:#ed1c24;stroke:#fff;stroke-miterlimit:10;stroke-width:5px"/><line x1="662.723" y1="6.591" x2="97.237" y2="6.591" style="fill:#ed1c24;stroke:#fff;stroke-miterlimit:10;stroke-width:5px"/><path d="M323.387,193.773s-25.7-6.909-32.7,1.319c-9.387,11.03-38.866,76.871-38.866,76.871l26.821,35.142s44.654-53.038,51.232-68.629C334.733,226.949,323.387,193.773,323.387,193.773ZM278.638,307.105l15.55,55.668c22.213-33.379,11.624-67.276,9.538-77.81Zm-26.821-35.142,11.806-36.108c-6.81-.965-27.63-8.473-45.542,22.956ZM304.7,230.454c1.932,2.74,2.752,6.818,2.125,11.682-1.316,10.252-8.978,20.7-17.676,22.924-9.371,2.4-15.037-5.814-12.285-17.716,2.541-10.987,11.172-19.868,19.09-20.662A9.092,9.092,0,0,1,304.7,230.454Zm-57.806,54.12c-28.654,13.288-31.037,78.588-31.037,78.588s43.582-5.124,49.991-52.7L238.1,326.872Z" transform="translate(-126.489 -164.669)" style="fill:#d14e4d;stroke:#fff;stroke-miterlimit:10"/><text transform="matrix(0.892, 0.484, -0.498, 0.867, 133.57, 96.065)" style="font-size:82.13345336914062px;fill:#231f20;stroke:#fff;font-family:Staatliches-Regular, Staatliches">o</text><text transform="translate(104.224 111.675) scale(1.025 1)" style="font-size:77px;fill:#231f20;stroke:#fff;font-family:Staatliches-Regular, Staatliches"><tspan xml:space="preserve">R   </tspan><tspan x="71.3" y="0" style="font-size:69px"> </tspan><tspan x="81.512" y="0">CKET</tspan><tspan x="215.644" y="0" style="letter-spacing:0.022999457122225835em"> </tspan><tspan x="228.81" y="0">APPL</tspan><tspan x="362.632" y="0" style="letter-spacing:-0.019986076541509135em">I</tspan><tspan x="377.262" y="0" style="letter-spacing:0.0000061876397961328594em">ANCE</tspan></text><rect x="284.373" y="224.313" width="13.251" height="40.21" rx="6.626" transform="translate(34.706 -277.423) rotate(30)" style="fill:#7f3f98;stroke:#fff;stroke-miterlimit:10"/><polygon points="790.23 84.748 747.693 60.991 747.693 108.505 790.23 84.748" style="fill:#231f20;stroke:#fff;stroke-miterlimit:10;stroke-width:0.25px"/><path d="M362.7,257.634" transform="translate(-126.489 -164.669)" style="fill:#231f20;stroke:#fff"/></svg>